<?xml version="1.0" encoding="utf-8"?>
<!-- Generator: Adobe Illustrator 19.0.0, SVG Export Plug-In . SVG Version: 6.00 Build 0)  -->
<svg version="1.1" id="ConquistaLogo" xmlns="http://www.w3.org/2000/svg" xmlns:xlink="http://www.w3.org/1999/xlink" x="0px"
	 y="0px" viewBox="0 0 1000 401.4" style="enable-background:new 0 0 1000 401.4;" xml:space="preserve">
<style type="text/css">
	.st0{display:none;fill:url(#XMLID_4_);}
</style>
<g id="ConquistaLogoBackground">
	<path id="XMLID_2_" d="M964,401.4H35.7c-19.9,0-36-16.1-36-36V36c0-19.9,16.1-36,36-36H964c19.9,0,36,16.1,36,36v329.4
		C1000,385.3,983.9,401.4,964,401.4z"/>
</g>
<g id="ConquistaLogoType">
	<g id="ConquistaLogoTypeConquista">
		<g id="XMLID_140_">
			<path id="ConquistaLogoTypeConquista-a_8_" d="M827.6,276c3.8,0.1,7.5,0.2,11.3,0.3c12.6,0.3,12.8,0.4,16.7-11.8
				c1.5-4.9,3.7-6.9,8.9-6.5c7.7,0.5,15.6,0.6,23.3,0c7.6-0.6,12.4,1.1,13.3,9.6c0.7,7,4.4,10.3,12.1,9c6.1-1,12.5-0.5,18.8-0.7
				c9-0.3,9.1-0.3,6.2-8.5c-11.2-32.4-22.4-64.8-33.6-97.2c-6.3-18.3-6.3-18.3-25.9-18.3c-3.8,0-7.6,0.4-11.3-0.1
				c-7.2-0.9-10.5,1.9-12.7,8.9c-11.2,34.8-23,69.4-34.5,104C816.5,275.7,816.6,275.7,827.6,276z M868.3,222.8c3-10,6-20.1,9-30.1
				c0.6,0,1.1,0,1.7,0c2.7,10,5.4,20.1,8.1,30.1c0.1,0.2,0.1,0.5,0.1,0.7c0.2,1.3,0.4,2.9-1.2,3c-5.7,0.2-11.5,0.4-17.2,0.1
				C867.1,226.5,868,224.1,868.3,222.8z"/>
			<path id="ConquistaLogoTypeConquista-t_8_" d="M752,183.7c4.7-0.4,9.5,0,14.3-0.2c3.6-0.1,4.6,0.8,4.5,4.5
				c-0.3,13.8-0.1,28.9-0.1,40.9c0,0,0,0,0,0c0,14,0.1,27.9-0.1,41.7c-0.1,4.6,1.3,6.3,6,6c7-0.4,14.1-0.5,21,0.1
				c6.8,0.6,8.3-1.9,8.2-8.3c-0.4-26,0-52-0.2-78.1c0-5.1,1.3-7.4,6.7-6.8c3.7,0.4,7.5-0.1,11.3,0.1c4.1,0.2,6-0.9,5.4-5.4
				c-0.9-7.2-1.5-14.4-1.8-21.7c-0.2-3.9-2.3-4.5-5.3-4.5c-22.3,0-44.6,0-66.8,0c-3.6,0-5.6,1.2-5.9,5c-0.5,7.2-1.2,14.5-1.9,21.7
				C746.8,182.4,747.8,184.1,752,183.7z"/>
			<path id="ConquistaLogoTypeConquista-s_8_" d="M697.7,226.4c3.9,4.3,4.8,9.4,1.7,14.5c-3,5-8,4.1-12.8,3.8
				c-4-0.3-8.2-5.8-11.1-2.3c-2.1,2.5-0.6,8.4-0.7,12.7c0,1.3,0,2,0,4c0,0,0,0,0,0c0,4,0,9.3,0,14c0,2.6,0.7,3.8,3.8,4.1
				c10.3,1,20.5,1.2,30.7-0.9c16.3-3.4,26.2-13.6,30.8-29.5c4.4-15.4-1.2-27.4-12-37.9c-3.2-3.1-6.8-5.9-10.2-8.9
				c-1.8-1.7-3.7-3.5-5-5.6c-4.9-7.8-1-15.3,8.2-15.8c4.6-0.3,9,0.8,12.9,3.2c4,2.5,4.7,0.7,4.5-2.9c-0.1-2.3,0-4.5,0-6.8
				c0-22-1.2-23.1-23.8-23.7c-18.9-0.4-31.7,6.8-37.8,21.5c-7,16.9-3.5,32.8,10.1,45.9C690.6,219.3,694.3,222.7,697.7,226.4z"/>
			<path id="ConquistaLogoTypeConquista-i_8_" d="M631,276.9c7.5-0.3,15-0.4,22.5,0c5.1,0.3,6.4-1.6,6.4-6.4
				c-0.2-18.5-0.1-37.6-0.1-55.6c0,0,0,0,0.1,0c0-18-0.2-38.1,0.1-57.1c0.1-4.4-1.3-5.9-5.4-5.8c-7.8,0.1-15.5,0.1-23.3-0.1
				c-4.1-0.1-5.8,1.5-5.7,5.7c0.1,38.1,0.2,76.1,0.1,114.2C625.6,275.7,627,277.1,631,276.9z"/>
			<path id="ConquistaLogoTypeConquista-u_8_" d="M529.4,243.4c0.6,18.8,11.1,30.5,28.2,34.3c6.6,1.5,13.3,2,20.2,1.2
				c23.3-2.6,35-14.2,35.9-37.8c0.5-13.5,0.1-28.1,0.1-40.1c0.1,0,0.1,0,0.2,0c0-14-0.3-28.6,0.2-42.6c0.2-5.1-1.8-6.2-6-6.1
				c-6.8,0.2-13.6,0.3-20.3-0.3c-6.5-0.5-8.8,1.4-8.7,8.2c0.4,23.1,0.2,46.1,0.2,69.1c0,3.2-0.2,6.5-0.7,9.7
				c-0.5,3.8-3.1,5.5-6.8,5.6c-4,0.1-6.9-1.6-7.7-5.6c-0.5-2.7-0.5-5.5-0.5-8.2c0-24.3-0.1-48.6,0.1-72.9c0-4.2-1-6-5.3-5.9
				c-8.3,0.1-16.5,0.1-24.8-0.1c-3.5,0-4.9,1.4-4.8,4.9C529,185.7,528.5,214.6,529.4,243.4z"/>
			<path id="ConquistaLogoTypeConquista-q_8_" d="M418.5,267.6c19.2,12.6,40.1,14.4,61.9,8.3c2.5-0.7,4.9-2.7,7.3,0.5
				c2.7,3.5,5.2,9.5,9.1,9c3.9-0.5,7.3-5.6,10.9-8.7c2.1-1.8,4.1-3.7,6.1-5.5c7.6-6.8,7.6-6.8-0.2-13.5c-0.8-0.6-1.5-1.4-2.3-1.9
				c-2.6-1.6-2.9-3.2-1.1-6c10.7-16.3,11.9-34.3,7.4-52.7c-7.7-31.4-36.7-50.8-69.2-46.9c-34.5,4.1-56.8,29.4-56.8,74.9
				C391.6,236.7,399.4,255.1,418.5,267.6z M457,185.8c17,0.1,27.2,11,27.1,29c-0.1,17.7-10.7,28.5-27.8,28.4
				c-16.9-0.2-27.6-11.4-27.3-29C429.3,196.6,440,185.7,457,185.8z"/>
			<path id="ConquistaLogoTypeConquista-n_8_" d="M346,174.1c-0.3,9.1-0.1,18.1-0.1,27.2c-13.4-13.4-25.3-26.9-36.2-41.1
				c-4.9-6.4-10.3-8.3-17.9-7.8c-4.7,0.3-6.1,2-6,6.3c0.2,6.8,0,13.5,0.1,20.3c0,30.3,0.2,60.6,0,91c0,5.6,1.5,7.5,7.2,7
				c6.2-0.6,12.5-0.6,18.8-0.1c5.7,0.4,7.3-1.5,7.1-7.1c-0.4-14.9-0.1-29.9-0.1-44.8c0.6-0.2,1.1-0.3,1.7-0.5
				c12.3,14.8,25,29.3,36.9,44.4c4.7,5.9,9.6,8.2,17.1,7.9c6-0.2,7.5-1.8,7.5-7.7c-0.3-34.6-0.1-69.2-0.1-103.7
				c0-13.6,0-13.8-13.9-13.5c-6.9,0.1-15.8-3.1-20.3,1.3C342.9,157.8,346.3,166.9,346,174.1z"/>
			<path id="ConquistaLogoTypeConquista-o_8_" d="M147.1,216.9c0,37.7,27.2,64.8,65.1,64.9c37.7,0.1,65.2-27.1,65.3-64.7
				c0.1-37.7-27.1-65.3-64.7-65.5C175,151.4,147,179.2,147.1,216.9z M213.6,186.5c17.3-0.1,28.3,11.4,28.4,29.9
				c0.1,18.5-10.8,29.9-28.3,29.8c-17.2-0.1-28-11.3-28.1-29.3C185.4,198.5,196.4,186.6,213.6,186.5z"/>
			<path id="ConquistaLogoTypeConquista-c_8_" d="M137.8,278c2.3-0.5,3.7-1.4,3.7-3.9c0-10.2,0-20.4,0-30.9c-2.8,1.1-6,2.5-9.2,3.7
				c-8.1,2.9-16.2,3.3-23.9-1.1c-13.2-7.6-18.9-27.5-12.4-43.3c5.7-13.8,18.4-19.3,35-15c1.9,0.5,3.9,1,5.7,1.8
				c3.6,1.5,4.9,0.7,4.7-3.3c-0.4-8.3-0.7-16.5-0.7-24.8c0-3.4-1.1-4.9-4.4-5.7c-14.3-3.5-28.3-3.4-41.9,2.7
				C68,170,53.3,202.8,60.3,233.9C69.2,273.6,104.8,284.5,137.8,278z"/>
		</g>
	</g>
	<g id="ConquistaLogoTypeBebidas">
		<path id="ConquistaLogoTypeBebidas-s" d="M300.6,118.9c4.2,0.8,8.4,1.3,12.6,2.1c1.6,0.3,4,0.5,3.6,2.9c-0.3,2.2-2.6,2-4.3,2.1
			c-2.6,0.2-4.7-0.8-6.9-2.3c-3.5-2.4-7.7-1.4-11.6-0.7c-1.5,0.3-1.4,1.9-1,3.1c1.4,4,4.5,5.9,8.4,6.8c7.2,1.7,14.4,1.9,21.5-0.3
			c5-1.5,8.2-4.6,8.1-10.3c-0.1-5.6-3.7-7.6-8.4-8.9c-5.4-1.6-11.3-0.9-16.9-3.9c3.4-3.4,6.6-2.7,9.7-0.8c1.7,1.1,3.3,2.5,5.4,2.2
			c3-0.4,7.5,1.8,8.4-2.4c0.9-3.8-2.9-6.3-6.2-7.5c-7.8-2.8-15.7-3.1-23.6-0.3c-4.3,1.6-7,4.8-6.7,9.8
			C292.9,115.5,295.9,118,300.6,118.9z"/>
		<path id="ConquistaLogoTypeBebidas-a" d="M253.4,132.5c3,1.4,6.9,1.8,9.9-0.7c6.5-5.4,10.7-5.4,17.1,0c3,2.5,7.1,2.3,10,0.9
			c3.6-1.8,0.2-4.8-0.6-7c-2.3-6.3-5.2-12.4-7.6-18.7c-1.7-4.6-3.9-7.4-9.7-7.1c-5.4,0.2-8.6,1.2-10.7,6.7
			c-2.5,6.6-4.6,13.5-8.6,19.5C252.7,128.3,250.7,131.2,253.4,132.5z"/>
		<path id="ConquistaLogoTypeBebidas-d" d="M230.8,133.3c8.3,0,16.6,0.2,22.3-7.3c3.8-20.6-0.6-26-21.1-26c-17.7,0-17.7,0-17.4,17.7
			C214.9,133.3,214.9,133.3,230.8,133.3z M226.5,117.6c0.5-4.3-1.5-10.6,6.4-9.1c6.5-0.4,9,2.9,9.1,8.7c0.1,6.5-3.9,7.7-9.4,8
			C226.7,125.4,225.9,122.1,226.5,117.6z"/>
		<path id="ConquistaLogoTypeBebidas-i" d="M199.1,127c-0.1,4.3,1.1,6.3,5.8,6.3c4.9,0,5.9-2.5,5.7-6.7c-0.2-3.5,0-6.7,0-10.7
			c0.1,0,0.1,0,0.2,0c0-4-0.2-7.3,0.1-11c0.4-4.7-2.2-5.1-6-5.1c-3.9,0-6,0.9-5.8,5.4C199.2,112.5,199.3,119.8,199.1,127z"/>
		<path id="ConquistaLogoTypeBebidas-b" d="M162,133.2c8.5-0.1,17.1,0.2,25.5-0.6c7.4-0.7,11-7.4,7.6-13.7c-1.8-3.2-1.5-5.5-0.7-8.7
			c1.4-5.5-1-9.4-6.9-9.9c-4.2-0.4-8.5-0.1-12.5-0.1c0,0,0-0.1,0-0.1c-4,0-8.3,0.1-12.3,0c-3.6-0.1-5.1,1.6-5,5
			c0.2,8,0.2,16,0.3,24.1C158,131.8,159.3,133.2,162,133.2z M175.9,108.4c2,0,5.6-1.1,5.6,1.7c0,3.5-3.8,1.7-6,2.3
			c-1.8-0.7-5.3,1.3-5.2-2.2C170.5,107.1,173.9,108.4,175.9,108.4z M176.3,119.6c2.8,0.9,7.2-1.1,6.9,3c-0.3,4.2-4.6,2.7-7.4,2.7
			c-2.2,0-5.8,1.3-5.9-2.4C169.8,117.6,174.7,121.3,176.3,119.6z"/>
		<path id="ConquistaLogoTypeBebidas-e" d="M121.1,128.2c-0.1,3.5,1.2,5.1,4.8,5.1c8-0.1,16,0,24.1,0c2.5,0,4.4-0.8,4.4-3.8
			c0-3-1.7-3.9-4.3-3.9c-4.5,0-9,0-13.5-0.1c-1.8,0-3.8-0.3-3.7-2.7c0.1-2.5,2.2-2.3,3.9-2.3c3.8-0.1,7.5-0.1,11.3,0
			c2.8,0,5-0.4,4.9-4c-0.1-3.1-2.2-3.6-4.6-3.6c-3.5,0-7,0.1-10.5-0.1c-1.8-0.1-4.7,0.7-4.8-2.2c-0.1-3,2.7-2.3,4.5-2.3
			c4-0.1,8,0,12,0.1c2.8,0,4.9-0.7,5-4.1c0.1-3.5-2-4.1-4.8-4.1c-4,0-8,0-12,0c-3.5,0-7,0.2-10.5-0.1c-5-0.4-6.6,1.5-6.3,6.4
			C121.4,113.6,121.2,120.9,121.1,128.2z"/>
		<path id="ConquistaLogoTypeBebidas-b_1_" d="M80.8,128c0,3.3,1.1,5.2,4.7,5.2c7.7-0.1,15.5,0.3,23.2-0.3
			c9.6-0.7,12.9-7.1,8.6-15.7c-0.6-1.3-1.5-2.2-1.2-4c1.7-12,0.6-13.2-11.6-13.2c-2.2,0-4.5,0-6.7,0c-3.5,0-7,0.3-10.5-0.1
			c-4.9-0.5-6.7,1.4-6.5,6.3C81,113.5,80.9,120.8,80.8,128z M93.3,110c0.3-3.3,4-1.8,6.1-1.9c2-0.1,5.4-1,5.3,2
			c-0.1,3.5-3.8,1.8-6,2.4C96.9,111.8,93,113.9,93.3,110z M99.7,120c2.4-0.1,6.6-1.3,6.7,2.4c0.1,4.4-4.5,2.3-6.8,3.2
			c-2.6-0.8-6.7,1.3-6.4-3.2C93.4,118.3,97.3,120,99.7,120z"/>
	</g>
</g>
<g id="ConquistaLogoBorder">
	<linearGradient id="XMLID_4_" gradientUnits="userSpaceOnUse" x1="499.9657" y1="401.4026" x2="499.9657" y2="1.471290e-008">
		<stop  offset="0" style="stop-color:#2D3079"/>
		<stop  offset="0.2444" style="stop-color:#1E3D84"/>
		<stop  offset="0.7014" style="stop-color:#085095"/>
		<stop  offset="0.9944" style="stop-color:#00579B"/>
	</linearGradient>
	<path id="XMLID_164_" class="st0" d="M77.8,401.4c140.7,0,281.4,0,422.1,0c140.7,0,281.4,0,422.1,0c45,0,78-32.9,78-77.8
		c0-82.3-0.1-164.5-0.1-246.8c0-6.3-0.7-12.5-2.2-18.6C989.6,23.5,959.2,0,922.3,0c-250,0-500,0-750.1,0H79.5
		C32.4,0,0.1,32.1,0,79.1C0,91,0,103,0,115v214.8c0,1.7,0.2,3.4,0.4,5.1C6.4,374.9,37.1,401.4,77.8,401.4z M867.4,151.9
		c3.7,0.5,7.5,0.1,11.3,0.1c19.5,0,19.6,0,25.9,18.3c11.2,32.4,22.4,64.8,33.6,97.2c2.8,8.2,2.8,8.2-6.2,8.5
		c-6.3,0.2-12.6-0.3-18.8,0.7c-7.7,1.2-11.4-2-12.1-9c-0.9-8.5-5.6-10.2-13.3-9.6c-7.7,0.6-15.5,0.5-23.3,0
		c-5.3-0.3-7.4,1.7-8.9,6.5c-3.9,12.2-4.1,12.1-16.7,11.8c-3.8-0.1-7.5-0.2-11.3-0.3c-11-0.3-11.1-0.3-7.4-11.2
		c11.6-34.7,23.3-69.2,34.5-104C856.9,153.8,860.2,150.9,867.4,151.9z M747.1,178.6c0.8-7.2,1.4-14.4,1.9-21.7c0.3-3.8,2.3-5,5.9-5
		c22.3,0.1,44.6,0.1,66.8,0.1c3.1,0,5.2,0.7,5.3,4.5c0.3,7.2,0.9,14.5,1.8,21.7c0.6,4.6-1.3,5.7-5.4,5.4c-3.7-0.2-7.5,0.3-11.3-0.1
		c-5.4-0.5-6.7,1.7-6.7,6.8c0.2,26-0.1,52.1,0.2,78.1c0.1,6.5-1.4,9-8.2,8.4c-7-0.6-14-0.4-21,0c-4.7,0.3-6.1-1.6-6-6.2
		c0.2-13.8,0.1-27.7,0.1-41.7c0,0,0,0,0,0c0-12-0.2-27.2,0.1-40.9c0.1-3.7-1-4.8-4.5-4.7c-4.8,0.2-9.5-0.2-14.3,0.3
		C747.7,184,746.7,182.4,747.1,178.6z M676.8,170c6.1-14.6,18.9-21.9,37.8-21.5c22.6,0.5,23.8,1.7,23.8,23.7c0,2.3-0.1,4.5,0,6.8
		c0.2,3.6-0.6,5.4-4.5,2.9c-3.9-2.4-8.3-3.5-12.9-3.2c-9.2,0.5-13.2,8-8.2,15.8c1.3,2.1,3.2,3.9,5,5.6c3.3,3.1,6.9,5.8,10.2,8.9
		c10.8,10.4,16.5,22.4,12,37.8c-4.6,15.9-14.4,26.1-30.8,29.4c-10.1,2.1-20.4,1.8-30.7,0.8c-3-0.3-3.8-1.3-3.8-4c0.1-4.8,0-10,0-14
		c0,0,0,0,0,0c0-2,0-2.8,0-4c0.1-4.2-1.4-10,0.7-12.5c3-3.5,7.1,2,11.1,2.2c4.8,0.4,9.8,1.2,12.8-3.8c3.1-5.1,2.2-10.2-1.7-14.5
		c-3.4-3.7-7.1-7-10.7-10.5C673.3,202.7,669.8,186.8,676.8,170z M631.2,152c7.8,0.2,15.5,0.2,23.3,0.1c4.2-0.1,5.5,1.5,5.4,5.8
		c-0.3,19-0.1,39.1-0.1,57.1c0,0,0,0-0.1,0c0,18-0.1,37,0.1,55.6c0.1,4.8-1.3,6.7-6.4,6.4c-7.5-0.4-15-0.3-22.5,0
		c-4,0.2-5.3-1.2-5.3-5.1c0-38.1,0-76.1-0.1-114.2C625.5,153.5,627.1,151.9,631.2,152z M533.6,152c8.3,0.1,16.5,0.2,24.8,0.1
		c4.3-0.1,5.3,1.6,5.3,5.9c-0.2,24.3-0.2,48.6-0.1,72.9c0,2.7,0,5.5,0.5,8.2c0.8,4.1,3.7,5.8,7.7,5.6c3.7-0.1,6.3-1.9,6.8-5.6
		c0.5-3.2,0.7-6.5,0.7-9.7c0-23.1,0.2-46.1-0.2-69.2c-0.1-6.8,2.2-8.8,8.7-8.3c6.7,0.5,13.5,0.3,20.3,0.1c4.2-0.1,6.2,1.3,6,6.4
		c-0.4,14-0.2,28.6-0.2,42.6c-0.1,0-0.1,0-0.2,0c0,12,0.4,26.5-0.1,40.1c-0.9,23.6-12.6,35.5-35.9,38.1c-6.8,0.8-13.6,0.1-20.2-1.4
		c-17.1-3.8-27.6-15.5-28.2-34.3c-0.9-28.8-0.4-57.7-0.6-86.5C528.8,153.4,530.1,151.9,533.6,152z M448.4,150.3
		c32.5-3.9,61.5,15.4,69.2,46.9c4.5,18.3,3.3,36.3-7.4,52.7c-1.9,2.8-1.6,4.4,1.1,6c0.8,0.5,1.6,1.2,2.3,1.9
		c7.8,6.6,7.8,6.6,0.2,13.5c-2,1.8-4.1,3.7-6.1,5.5c-3.6,3.1-6.9,8.2-10.9,8.7c-3.9,0.5-6.4-5.5-9.1-9c-2.4-3.1-4.8-1.2-7.3-0.5
		c-21.8,6.1-42.7,4.3-61.9-8.3c-19-12.5-26.8-30.9-26.9-42.4C391.6,179.7,413.9,154.5,448.4,150.3z M347.7,153.1
		c4.5-4.4,13.4-1.2,20.3-1.3c13.9-0.2,13.9-0.1,13.9,13.5c0,34.6-0.1,69.2,0.1,103.7c0,5.8-1.5,7.5-7.5,7.7
		c-7.4,0.2-12.4-2-17.1-7.9c-11.9-15.1-24.5-29.6-36.9-44.4c-0.6,0.2-1.1,0.3-1.7,0.5c0,14.9-0.3,29.9,0.1,44.8
		c0.1,5.6-1.5,7.5-7.1,7.1c-6.2-0.5-12.6-0.5-18.8,0.1c-5.7,0.5-7.3-1.4-7.2-7c0.2-30.3,0-60.6,0-91c0-6.8,0.1-13.5-0.1-20.3
		c-0.1-4.3,1.2-6.1,6-6.3c7.5-0.4,13,1.4,17.9,7.8c10.9,14.2,22.9,27.7,36.2,41.1c0-9.1-0.2-18.1,0.1-27.2
		C346.3,166.9,342.9,157.8,347.7,153.1z M299.3,100.7c7.8-2.9,15.8-2.5,23.6,0.3c3.3,1.2,7.1,3.7,6.2,7.5c-0.9,4.2-5.4,2-8.4,2.4
		c-2.1,0.3-3.7-1.1-5.4-2.2c-3.1-1.9-6.3-2.6-9.7,0.8c5.6,3.1,11.5,2.4,16.9,3.9c4.8,1.4,8.3,3.3,8.4,8.9c0.1,5.7-3,8.8-8.1,10.3
		c-7.1,2.2-14.3,2-21.5,0.3c-3.9-0.9-7-2.8-8.3-6.8c-0.4-1.2-0.5-2.9,1-3.1c3.9-0.7,8.1-1.7,11.6,0.7c2.2,1.5,4.3,2.5,6.9,2.3
		c1.7-0.1,3.9,0.1,4.3-2.1c0.4-2.4-2-2.6-3.6-2.9c-4.2-0.8-8.4-1.3-12.6-2.1c-4.7-0.9-7.7-3.4-8-8.5
		C292.3,105.4,294.9,102.2,299.3,100.7z M272.5,99.8c5.8-0.2,7.9,2.5,9.7,7.1c2.4,6.3,5.3,12.4,7.6,18.7c0.8,2.2,4.2,5.3,0.6,7
		c-2.9,1.4-6.9,1.6-10-0.9c-6.4-5.4-10.6-5.4-17.1,0c-3.1,2.5-6.9,2.1-9.9,0.7c-2.7-1.3-0.7-4.2-0.2-6.4c4-6,6.1-12.9,8.6-19.5
		C263.9,101,267.2,100,272.5,99.8z M232,100c20.5,0,24.9,5.3,21.1,26c-5.7,7.5-14,7.3-22.3,7.3c-15.9,0-15.9,0-16.2-15.5
		C214.3,100,214.3,100,232,100z M277.5,217.1c-0.1,37.6-27.6,64.9-65.3,64.7c-38-0.1-65.1-27.2-65.1-64.9c0-37.7,28-65.5,65.7-65.3
		C250.4,151.8,277.6,179.3,277.5,217.1z M204.8,99.9c3.8,0,6.3,0.3,6,5c-0.3,3.7-0.1,7-0.1,11c-0.1,0-0.1,0-0.2,0
		c0,4-0.2,7.2,0,10.7c0.3,4.2-0.8,6.6-5.7,6.6c-4.8,0-5.9-1.9-5.8-6.3c0.2-7.2,0.1-14.5-0.2-21.7C198.7,100.8,200.8,99.9,204.8,99.9
		z M162.7,100c4,0.2,8.3,0,12.3,0c0,0,0,0.1,0,0.1c4,0,8.3-0.3,12.5,0.1c5.9,0.6,8.4,4.4,7,9.9c-0.8,3.3-1.1,5.5,0.7,8.7
		c3.5,6.3-0.2,13-7.6,13.7c-8.4,0.8-17,0.5-25.5,0.6c-2.8,0-4.1-1.4-4.1-4.2c-0.1-8-0.1-16-0.3-24.1
		C157.6,101.6,159.1,99.9,162.7,100z M127.2,100c3.5,0.3,7,0.1,10.5,0.1c4,0,8,0.1,12,0c2.8,0,4.9,0.6,4.8,4.1
		c-0.1,3.4-2.2,4.1-5,4.1c-4,0-8-0.1-12-0.1c-1.8,0-4.7-0.7-4.5,2.3c0.1,2.9,2.9,2.1,4.8,2.2c3.5,0.1,7,0.1,10.5,0.1
		c2.4,0,4.5,0.5,4.6,3.6c0.1,3.6-2.1,4-4.9,4c-3.8,0-7.5,0-11.3,0c-1.7,0-3.8-0.2-3.9,2.3c-0.1,2.4,1.9,2.7,3.7,2.7
		c4.5,0.1,9,0.1,13.5,0.1c2.6,0,4.3,0.8,4.3,3.9c0,3-1.9,3.8-4.4,3.8c-8,0-16,0-24.1,0c-3.5,0-4.8-1.6-4.8-5.1
		c0.1-7.3,0.3-14.5-0.2-21.8C120.6,101.5,122.3,99.5,127.2,100z M87.3,100c3.5,0.3,7,0.1,10.5,0.1c2.2,0,4.5,0,6.7,0
		c12.2,0,13.4,1.3,11.6,13.2c-0.3,1.8,0.6,2.7,1.2,4c4.2,8.6,0.9,15-8.6,15.7c-7.7,0.6-15.5,0.2-23.2,0.3c-3.6,0-4.7-1.9-4.7-5.2
		c0.1-7.2,0.2-14.5-0.1-21.7C80.5,101.4,82.4,99.5,87.3,100z M94.2,158.2c13.6-6.1,27.6-6.2,41.9-2.7c3.3,0.8,4.4,2.3,4.4,5.7
		c0,8.3,0.3,16.5,0.7,24.8c0.2,4-1.1,4.9-4.7,3.3c-1.8-0.8-3.8-1.3-5.7-1.8c-16.6-4.3-29.3,1.2-35,15c-6.5,15.8-0.8,35.7,12.4,43.3
		c7.8,4.4,15.8,4,23.9,1.1c3.2-1.2,6.4-2.6,9.2-3.7c0,10.5,0,20.7,0,30.9c0,2.4-1.4,3.4-3.7,3.9c-32.9,6.6-68.6-4.4-77.5-44.1
		C53.3,202.8,68,170,94.2,158.2z"/>
	<path id="XMLID_120_" d="M1000,36c0-19.9-16.1-36-36-36H36C16.1,0,0,16.1,0,36v329c0,19.9,16.1,36,36,36h928c19.9,0,36-16.1,36-36
		V36z M299.3,100.7c7.8-2.9,15.8-2.5,23.6,0.3c3.3,1.2,7.1,3.7,6.2,7.5c-0.9,4.2-5.4,2-8.4,2.4c-2.1,0.3-3.7-1.1-5.4-2.2
		c-3.1-1.9-6.3-2.6-9.7,0.8c5.6,3.1,11.5,2.4,16.9,3.9c4.8,1.4,8.3,3.3,8.4,8.9c0.1,5.7-3,8.8-8.1,10.3c-7.1,2.2-14.3,2-21.5,0.3
		c-3.9-0.9-7-2.8-8.3-6.8c-0.4-1.2-0.5-2.9,1-3.1c3.9-0.7,8.1-1.7,11.6,0.7c2.2,1.5,4.3,2.5,6.9,2.3c1.7-0.1,3.9,0.1,4.3-2.1
		c0.4-2.4-2-2.6-3.6-2.9c-4.2-0.8-8.4-1.3-12.6-2.1c-4.7-0.9-7.7-3.4-8-8.5C292.3,105.4,294.9,102.2,299.3,100.7z M232,100
		c20.5,0,24.9,5.3,21.1,26c-5.7,7.5-14,7.3-22.3,7.3c-15.9,0-15.9,0-16.2-15.5C214.3,100,214.3,100,232,100z M204.8,99.9
		c3.8,0,6.3,0.3,6,5c-0.3,3.7-0.1,7-0.1,11c-0.1,0-0.1,0-0.2,0c0,4-0.2,7.2,0,10.7c0.3,4.2-0.8,6.6-5.7,6.6c-4.8,0-5.9-1.9-5.8-6.3
		c0.2-7.2,0.1-14.5-0.2-21.7C198.7,100.8,200.8,99.9,204.8,99.9z M187.5,100.2c5.9,0.6,8.4,4.4,7,9.9c-0.8,3.3-1.1,5.5,0.7,8.7
		c3.5,6.3-0.2,13-7.6,13.7c-8.4,0.8-17,0.5-25.5,0.6c-2.8,0-4.1-1.4-4.1-4.2c-0.1-8-0.1-16-0.3-24.1c-0.1-3.4,1.4-5.1,5-5
		c4,0.2,8.3,0,12.3,0c0,0,0,0.1,0,0.1C179,100.1,183.3,99.8,187.5,100.2z M79.7,0c30.9,0,61.7,0,92.6,0H79.5C79.5,0,79.6,0,79.7,0z
		 M137.8,112.7c3.5,0.1,7,0.1,10.5,0.1c2.4,0,4.5,0.5,4.6,3.6c0.1,3.6-2.1,4-4.9,4c-3.8,0-7.5,0-11.3,0c-1.7,0-3.8-0.2-3.9,2.3
		c-0.1,2.4,1.9,2.7,3.7,2.7c4.5,0.1,9,0.1,13.5,0.1c2.6,0,4.3,0.8,4.3,3.9c0,3-1.9,3.8-4.4,3.8c-8,0-16,0-24.1,0
		c-3.5,0-4.8-1.6-4.8-5.1c0.1-7.3,0.3-14.5-0.2-21.8c-0.3-5,1.3-6.9,6.3-6.4c3.5,0.3,7,0.1,10.5,0.1c4,0,8,0.1,12,0
		c2.8,0,4.9,0.6,4.8,4.1c-0.1,3.4-2.2,4.1-5,4.1c-4,0-8-0.1-12-0.1c-1.8,0-4.7-0.7-4.5,2.3C133.1,113.4,135.9,112.6,137.8,112.7z
		 M80.7,106.3c-0.2-4.9,1.6-6.8,6.5-6.3c3.5,0.3,7,0.1,10.5,0.1c2.2,0,4.5,0,6.7,0c12.2,0,13.4,1.3,11.6,13.2
		c-0.3,1.8,0.6,2.7,1.2,4c4.2,8.6,0.9,15-8.6,15.7c-7.7,0.6-15.5,0.2-23.2,0.3c-3.6,0-4.7-1.9-4.7-5.2
		C80.9,120.8,81,113.5,80.7,106.3z M141.4,274.1c0,2.4-1.4,3.4-3.7,3.9c-32.9,6.6-68.6-4.4-77.5-44.1c-7-31.1,7.7-63.9,33.9-75.6
		c13.6-6.1,27.6-6.2,41.9-2.7c3.3,0.8,4.4,2.3,4.4,5.7c0,8.3,0.3,16.5,0.7,24.8c0.2,4-1.1,4.9-4.7,3.3c-1.8-0.8-3.8-1.3-5.7-1.8
		c-16.6-4.3-29.3,1.2-35,15c-6.5,15.8-0.8,35.7,12.4,43.3c7.8,4.4,15.8,4,23.9,1.1c3.2-1.2,6.4-2.6,9.2-3.7
		C141.4,253.7,141.4,263.9,141.4,274.1z M212.2,281.8c-38-0.1-65.1-27.2-65.1-64.9c0-37.7,28-65.5,65.7-65.3
		c37.6,0.2,64.8,27.7,64.7,65.5C277.4,254.7,249.9,281.9,212.2,281.8z M263.3,131.8c-3.1,2.5-6.9,2.1-9.9,0.7
		c-2.7-1.3-0.7-4.2-0.2-6.4c4-6,6.1-12.9,8.6-19.5c2.1-5.5,5.4-6.5,10.7-6.7c5.8-0.2,7.9,2.5,9.7,7.1c2.4,6.3,5.3,12.4,7.6,18.7
		c0.8,2.2,4.2,5.3,0.6,7c-2.9,1.4-6.9,1.6-10-0.9C274,126.4,269.9,126.4,263.3,131.8z M374.6,276.7c-7.4,0.2-12.4-2-17.1-7.9
		c-11.9-15.1-24.5-29.6-36.9-44.4c-0.6,0.2-1.1,0.3-1.7,0.5c0,14.9-0.3,29.9,0.1,44.8c0.1,5.6-1.5,7.5-7.1,7.1
		c-6.2-0.5-12.6-0.5-18.8,0.1c-5.7,0.5-7.3-1.4-7.2-7c0.2-30.3,0-60.6,0-91c0-6.8,0.1-13.5-0.1-20.3c-0.1-4.3,1.2-6.1,6-6.3
		c7.5-0.4,13,1.4,17.9,7.8c10.9,14.2,22.9,27.7,36.2,41.1c0-9.1-0.2-18.1,0.1-27.2c0.2-7.2-3.2-16.2,1.7-21
		c4.5-4.4,13.4-1.2,20.3-1.3c13.9-0.2,13.9-0.1,13.9,13.5c0,34.6-0.1,69.2,0.1,103.7C382.1,274.9,380.6,276.5,374.6,276.7z
		 M511.3,255.9c0.8,0.5,1.6,1.2,2.3,1.9c7.8,6.6,7.8,6.6,0.2,13.5c-2,1.8-4.1,3.7-6.1,5.5c-3.6,3.1-6.9,8.2-10.9,8.7
		c-3.9,0.5-6.4-5.5-9.1-9c-2.4-3.1-4.8-1.2-7.3-0.5c-21.8,6.1-42.7,4.3-61.9-8.3c-19-12.5-26.8-30.9-26.9-42.4
		c0-45.5,22.4-70.7,56.8-74.9c32.5-3.9,61.5,15.4,69.2,46.9c4.5,18.3,3.3,36.3-7.4,52.7C508.3,252.7,508.6,254.2,511.3,255.9z
		 M614.1,158.4c-0.4,14-0.2,28.6-0.2,42.6c-0.1,0-0.1,0-0.2,0c0,12,0.4,26.5-0.1,40.1c-0.9,23.6-12.6,35.5-35.9,38.1
		c-6.8,0.8-13.6,0.1-20.2-1.4c-17.1-3.8-27.6-15.5-28.2-34.3c-0.9-28.8-0.4-57.7-0.6-86.5c0-3.5,1.3-5,4.8-5
		c8.3,0.1,16.5,0.2,24.8,0.1c4.3-0.1,5.3,1.6,5.3,5.9c-0.2,24.3-0.2,48.6-0.1,72.9c0,2.7,0,5.5,0.5,8.2c0.8,4.1,3.7,5.8,7.7,5.6
		c3.7-0.1,6.3-1.9,6.8-5.6c0.5-3.2,0.7-6.5,0.7-9.7c0-23.1,0.2-46.1-0.2-69.2c-0.1-6.8,2.2-8.8,8.7-8.3c6.7,0.5,13.5,0.3,20.3,0.1
		C612.3,151.9,614.2,153.3,614.1,158.4z M659.8,215C659.8,215,659.8,215,659.8,215c-0.1,18-0.2,37,0,55.6c0.1,4.8-1.3,6.7-6.4,6.4
		c-7.5-0.4-15-0.3-22.5,0c-4,0.2-5.3-1.2-5.3-5.1c0-38.1,0-76.1-0.1-114.2c0-4.2,1.6-5.8,5.7-5.7c7.8,0.2,15.5,0.2,23.3,0.1
		c4.2-0.1,5.5,1.5,5.4,5.8C659.6,176.9,659.8,197,659.8,215z M739.9,246.7c-4.6,15.9-14.4,26.1-30.8,29.4
		c-10.1,2.1-20.4,1.8-30.7,0.8c-3-0.3-3.8-1.3-3.8-4c0.1-4.8,0-10,0-14c0,0,0,0,0,0c0-2,0-2.8,0-4c0.1-4.2-1.4-10,0.7-12.5
		c3-3.5,7.1,2,11.1,2.2c4.8,0.4,9.8,1.2,12.8-3.8c3.1-5.1,2.2-10.2-1.7-14.5c-3.4-3.7-7.1-7-10.7-10.5c-13.6-13.1-17.1-29-10.1-45.9
		c6.1-14.6,18.9-21.9,37.8-21.5c22.6,0.5,23.8,1.7,23.8,23.7c0,2.3-0.1,4.5,0,6.8c0.2,3.6-0.6,5.4-4.5,2.9
		c-3.9-2.4-8.3-3.5-12.9-3.2c-9.2,0.5-13.2,8-8.2,15.8c1.3,2.1,3.2,3.9,5,5.6c3.3,3.1,6.9,5.8,10.2,8.9
		C738.7,219.3,744.3,231.3,739.9,246.7z M812.3,183.5c-5.4-0.5-6.7,1.7-6.7,6.8c0.2,26-0.1,52.1,0.2,78.1c0.1,6.5-1.4,9-8.2,8.4
		c-7-0.6-14-0.4-21,0c-4.7,0.3-6.1-1.6-6-6.2c0.2-13.8,0.1-27.7,0.1-41.7c0,0,0,0,0,0c0-12-0.2-27.2,0.1-40.9c0.1-3.7-1-4.8-4.5-4.7
		c-4.8,0.2-9.5-0.2-14.3,0.3c-4.3,0.4-5.3-1.3-4.9-5.1c0.8-7.2,1.4-14.4,1.9-21.7c0.3-3.8,2.3-5,5.9-5c22.3,0.1,44.6,0.1,66.8,0.1
		c3.1,0,5.2,0.7,5.3,4.5c0.3,7.2,0.9,14.5,1.8,21.7c0.6,4.6-1.3,5.7-5.4,5.4C819.9,183.4,816.1,183.9,812.3,183.5z M931.8,275.9
		c-6.3,0.2-12.6-0.3-18.8,0.7c-7.7,1.2-11.4-2-12.1-9c-0.9-8.5-5.6-10.2-13.3-9.6c-7.7,0.6-15.5,0.5-23.3,0
		c-5.3-0.3-7.4,1.7-8.9,6.5c-3.9,12.2-4.1,12.1-16.7,11.8c-3.8-0.1-7.5-0.2-11.3-0.3c-11-0.3-11.1-0.3-7.4-11.2
		c11.6-34.7,23.3-69.2,34.5-104c2.2-7,5.5-9.8,12.7-8.9c3.7,0.5,7.5,0.1,11.3,0.1c19.5,0,19.6,0,25.9,18.3
		c11.2,32.4,22.4,64.8,33.6,97.2C940.9,275.6,940.9,275.6,931.8,275.9z"/>
	<path id="XMLID_219_" d="M79.7,0c-0.1,0-0.1,0-0.2,0h92.8C141.4,0,110.5,0,79.7,0z"/>
	<path id="XMLID_218_" d="M79.7,0c-0.1,0-0.1,0-0.2,0h92.8C141.4,0,110.5,0,79.7,0z"/>
	<path id="XMLID_220_" d="M457,185.9c-17-0.1-27.7,10.7-27.9,28.3c-0.2,17.5,10.4,28.8,27.3,29c17.1,0.2,27.7-10.7,27.7-28.4
		C484.2,196.8,474,186,457,185.9z"/>
	<path id="XMLID_221_" d="M213.6,186.5c-17.2,0.1-28.2,12-28.1,30.3c0.2,18,10.9,29.2,28.1,29.3c17.5,0.1,28.4-11.3,28.3-29.8
		C241.9,197.9,231,186.4,213.6,186.5z"/>
	<path id="XMLID_222_" d="M887.2,222.8c-2.7-10-5.4-20.1-8.1-30.1c-0.6,0-1.1,0-1.7,0c-3,10-6.1,20.1-9,30.1
		c-0.4,1.3-1.2,3.7,0.6,3.8c5.7,0.4,11.5,0.2,17.2-0.1c1.6-0.1,1.4-1.7,1.2-3C887.3,223.3,887.2,223.1,887.2,222.8z"/>
	<path id="XMLID_223_" d="M176.3,119.6c-1.7,1.7-6.5-2-6.4,3.3c0.1,3.8,3.8,2.5,5.9,2.4c2.7,0,7.1,1.4,7.4-2.7
		C183.5,118.5,179.1,120.5,176.3,119.6z"/>
	<path id="XMLID_224_" d="M170.4,110.2c-0.2,3.5,3.4,1.4,5.2,2.2c2.1-0.7,6,1.2,6-2.3c0-2.8-3.6-1.7-5.6-1.7
		C173.9,108.4,170.5,107.1,170.4,110.2z"/>
	<path id="XMLID_225_" d="M99.6,125.6c2.3-0.9,6.9,1.2,6.8-3.2c-0.1-3.8-4.3-2.5-6.7-2.4c-2.3,0.1-6.3-1.7-6.6,2.5
		C92.9,126.9,97,124.9,99.6,125.6z"/>
	<path id="XMLID_226_" d="M98.8,112.5c2.2-0.6,5.9,1.1,6-2.4c0.1-3-3.4-2.1-5.3-2c-2.2,0.1-5.8-1.5-6.1,1.9
		C93,113.9,96.9,111.8,98.8,112.5z"/>
	<path id="XMLID_227_" d="M232.6,125.1c5.4-0.3,9.5-1.5,9.4-8c-0.1-5.7-2.6-9-9.1-8.7c-7.9-1.5-5.9,4.8-6.4,9.1
		C225.9,122.2,226.7,125.4,232.6,125.1z"/>
</g>
</svg>
